{
  "accessors": [
    { "bufferView": 0, "byteOffset": 0, "componentType": 5123, "count": 60, "type": "SCALAR", "max": [46], "min": [0] },
    {
      "bufferView": 1,
      "byteOffset": 0,
      "componentType": 5126,
      "count": 47,
      "type": "VEC3",
      "max": [1.5240000486373901, 1.3716000318527222, 1.5240000486373901],
      "min": [-1.9811999797821045, -1.3716000318527222, -1.9811999797821045],
      "name": "POSITION"
    },
    {
      "bufferView": 1,
      "byteOffset": 12,
      "componentType": 5126,
      "count": 47,
      "type": "VEC3",
      "max": [0.57735276222229, 0.9045380353927612, 0.5773528814315796],
      "min": [-0.5773529410362244, -0.9045380353927612, -0.5773528218269348],
      "name": "NORMAL"
    },
    {
      "bufferView": 1,
      "byteOffset": 24,
      "componentType": 5126,
      "count": 47,
      "type": "VEC2",
      "max": [0.625, 1],
      "min": [0.375, 0.5],
      "name": "TEXCOORD_0"
    },
    { "bufferView": 0, "byteOffset": 120, "componentType": 5123, "count": 36, "type": "SCALAR", "max": [26], "min": [0] },
    {
      "bufferView": 2,
      "byteOffset": 0,
      "componentType": 5126,
      "count": 27,
      "type": "VEC3",
      "max": [1.5240000486373901, -1.3716000318527222, 1.5240000486373901],
      "min": [-1.5240000486373901, -1.783079981803894, -1.5240000486373901],
      "name": "POSITION"
    },
    {
      "bufferView": 2,
      "byteOffset": 12,
      "componentType": 5126,
      "count": 27,
      "type": "VEC3",
      "max": [0.5773527026176453, 0.57735276222229, 0.5773527026176453],
      "min": [-0.5773527026176453, -0.57735276222229, -0.5773527026176453],
      "name": "NORMAL"
    },
    {
      "bufferView": 2,
      "byteOffset": 24,
      "componentType": 5126,
      "count": 27,
      "type": "VEC2",
      "max": [0.375, 0.5],
      "min": [0.125, 0.25],
      "name": "TEXCOORD_0"
    },
    { "bufferView": 0, "byteOffset": 192, "componentType": 5123, "count": 180, "type": "SCALAR", "max": [141], "min": [0] },
    {
      "bufferView": 3,
      "byteOffset": 0,
      "componentType": 5126,
      "count": 142,
      "type": "VEC3",
      "max": [0.8500000238418579, 0.03500000014901161, 0.8500000238418579],
      "min": [-0.8500000238418579, -0.03500000014901161, -0.8500000238418579],
      "name": "POSITION"
    },
    {
      "bufferView": 3,
      "byteOffset": 12,
      "componentType": 5126,
      "count": 142,
      "type": "VEC3",
      "max": [0.707109808921814, 1.0000044107437134, 0.7071098685264587],
      "min": [-0.707109808921814, -1.0000044107437134, -0.7071098685264587],
      "name": "NORMAL"
    },
    {
      "bufferView": 3,
      "byteOffset": 24,
      "componentType": 5126,
      "count": 142,
      "type": "VEC2",
      "max": [0.875, 1],
      "min": [0.125, 0],
      "name": "TEXCOORD_0"
    },
    { "bufferView": 0, "byteOffset": 552, "componentType": 5123, "count": 120, "type": "SCALAR", "max": [97], "min": [0] },
    {
      "bufferView": 4,
      "byteOffset": 0,
      "componentType": 5126,
      "count": 98,
      "type": "VEC3",
      "max": [0.6878595948219299, -7.237245824853744e-8, -0.19318373501300812],
      "min": [0.5326399207115173, -0.18224498629570007, -0.37916746735572815],
      "name": "POSITION"
    },
    {
      "bufferView": 4,
      "byteOffset": 12,
      "componentType": 5126,
      "count": 98,
      "type": "VEC3",
      "max": [1.0000044107437134, 0, 1.0000044107437134],
      "min": [-1.0000044107437134, -1.0000044107437134, -1.0000044107437134],
      "name": "NORMAL"
    },
    {
      "bufferView": 4,
      "byteOffset": 24,
      "componentType": 5126,
      "count": 98,
      "type": "VEC2",
      "max": [1, 0.29447078704833984],
      "min": [0.883586585521698, 0],
      "name": "TEXCOORD_0"
    },
    { "bufferView": 0, "byteOffset": 792, "componentType": 5123, "count": 336, "type": "SCALAR", "max": [267], "min": [0] },
    {
      "bufferView": 5,
      "byteOffset": 0,
      "componentType": 5126,
      "count": 268,
      "type": "VEC3",
      "max": [1.0753811597824097, 0.4967498183250427, 0.44999998807907104],
      "min": [-0.824618935585022, 0, -0.44999998807907104],
      "name": "POSITION"
    },
    {
      "bufferView": 5,
      "byteOffset": 12,
      "componentType": 5126,
      "count": 268,
      "type": "VEC3",
      "max": [1.0000044107437134, 0.9045380353927612, 0.9045380353927612],
      "min": [-1.0000044107437134, -1.0000044107437134, -1.0000044107437134],
      "name": "NORMAL"
    },
    {
      "bufferView": 5,
      "byteOffset": 24,
      "componentType": 5126,
      "count": 268,
      "type": "VEC2",
      "max": [1, 1],
      "min": [0, 0],
      "name": "TEXCOORD_0"
    },
    { "bufferView": 0, "byteOffset": 1464, "componentType": 5123, "count": 180, "type": "SCALAR", "max": [141], "min": [0] },
    {
      "bufferView": 6,
      "byteOffset": 0,
      "componentType": 5126,
      "count": 142,
      "type": "VEC3",
      "max": [1, 1.4199765920639038, 1],
      "min": [-1, -1.4199765920639038, -1],
      "name": "POSITION"
    },
    {
      "bufferView": 6,
      "byteOffset": 12,
      "componentType": 5126,
      "count": 142,
      "type": "VEC3",
      "max": [0.8418449759483337, 0.9532318711280823, 0.8514047861099243],
      "min": [-0.8418449759483337, -0.9532318711280823, -0.8514047265052795],
      "name": "NORMAL"
    },
    {
      "bufferView": 6,
      "byteOffset": 24,
      "componentType": 5126,
      "count": 142,
      "type": "VEC2",
      "max": [0.875, 1],
      "min": [0.125, 0],
      "name": "TEXCOORD_0"
    },
    { "bufferView": 0, "byteOffset": 1824, "componentType": 5123, "count": 144, "type": "SCALAR", "max": [119], "min": [0] },
    {
      "bufferView": 7,
      "byteOffset": 0,
      "componentType": 5126,
      "count": 120,
      "type": "VEC3",
      "max": [0.17499999701976776, 0.07500000298023224, 0.17499999701976776],
      "min": [-0.17499999701976776, -0.07500000298023224, -0.17499999701976776],
      "name": "POSITION"
    },
    {
      "bufferView": 7,
      "byteOffset": 12,
      "componentType": 5126,
      "count": 120,
      "type": "VEC3",
      "max": [1.0000044107437134, 1.0000044107437134, 1.0000044107437134],
      "min": [-1.0000044107437134, -1.0000044107437134, -0.9966648817062378],
      "name": "NORMAL"
    },
    {
      "bufferView": 7,
      "byteOffset": 24,
      "componentType": 5126,
      "count": 120,
      "type": "VEC2",
      "max": [0.875, 1],
      "min": [0.125, 0],
      "name": "TEXCOORD_0"
    },
    { "bufferView": 0, "byteOffset": 2112, "componentType": 5123, "count": 120, "type": "SCALAR", "max": [97], "min": [0] },
    {
      "bufferView": 8,
      "byteOffset": 0,
      "componentType": 5126,
      "count": 98,
      "type": "VEC3",
      "max": [0.6878595948219299, -7.237245824853744e-8, -0.19318373501300812],
      "min": [0.5326399207115173, -0.18224498629570007, -0.37916746735572815],
      "name": "POSITION"
    },
    {
      "bufferView": 8,
      "byteOffset": 12,
      "componentType": 5126,
      "count": 98,
      "type": "VEC3",
      "max": [1.0000044107437134, 0, 1.0000044107437134],
      "min": [-1.0000044107437134, -1.0000044107437134, -1.0000044107437134],
      "name": "NORMAL"
    },
    {
      "bufferView": 8,
      "byteOffset": 24,
      "componentType": 5126,
      "count": 98,
      "type": "VEC2",
      "max": [1, 0.29447078704833984],
      "min": [0.883586585521698, 0],
      "name": "TEXCOORD_0"
    },
    { "bufferView": 0, "byteOffset": 2352, "componentType": 5123, "count": 336, "type": "SCALAR", "max": [267], "min": [0] },
    {
      "bufferView": 9,
      "byteOffset": 0,
      "componentType": 5126,
      "count": 268,
      "type": "VEC3",
      "max": [0.7455729246139526, 0.4967498183250427, 0.44999998807907104],
      "min": [-0.824618935585022, 0, -0.44999998807907104],
      "name": "POSITION"
    },
    {
      "bufferView": 9,
      "byteOffset": 12,
      "componentType": 5126,
      "count": 268,
      "type": "VEC3",
      "max": [1.0000044107437134, 0.9045380353927612, 0.9045380353927612],
      "min": [-1.0000044107437134, -1.0000044107437134, -1.0000044107437134],
      "name": "NORMAL"
    },
    {
      "bufferView": 9,
      "byteOffset": 24,
      "componentType": 5126,
      "count": 268,
      "type": "VEC2",
      "max": [1, 1],
      "min": [0, 0],
      "name": "TEXCOORD_0"
    },
    { "bufferView": 0, "byteOffset": 3024, "componentType": 5123, "count": 180, "type": "SCALAR", "max": [141], "min": [0] },
    {
      "bufferView": 10,
      "byteOffset": 0,
      "componentType": 5126,
      "count": 142,
      "type": "VEC3",
      "max": [1, 1.4199765920639038, 1],
      "min": [-1, -1.4199765920639038, -1],
      "name": "POSITION"
    },
    {
      "bufferView": 10,
      "byteOffset": 12,
      "componentType": 5126,
      "count": 142,
      "type": "VEC3",
      "max": [0.8418449759483337, 0.9532318711280823, 0.8514047861099243],
      "min": [-0.8418449759483337, -0.9532318711280823, -0.8514047265052795],
      "name": "NORMAL"
    },
    {
      "bufferView": 10,
      "byteOffset": 24,
      "componentType": 5126,
      "count": 142,
      "type": "VEC2",
      "max": [0.875, 1],
      "min": [0.125, 0],
      "name": "TEXCOORD_0"
    },
    { "bufferView": 0, "byteOffset": 3384, "componentType": 5123, "count": 144, "type": "SCALAR", "max": [119], "min": [0] },
    {
      "bufferView": 11,
      "byteOffset": 0,
      "componentType": 5126,
      "count": 120,
      "type": "VEC3",
      "max": [0.17499999701976776, 0.07500000298023224, 0.17499999701976776],
      "min": [-0.17499999701976776, -0.07500000298023224, -0.17499999701976776],
      "name": "POSITION"
    },
    {
      "bufferView": 11,
      "byteOffset": 12,
      "componentType": 5126,
      "count": 120,
      "type": "VEC3",
      "max": [1.0000044107437134, 1.0000044107437134, 1.0000044107437134],
      "min": [-1.0000044107437134, -1.0000044107437134, -0.9966648817062378],
      "name": "NORMAL"
    },
    {
      "bufferView": 11,
      "byteOffset": 24,
      "componentType": 5126,
      "count": 120,
      "type": "VEC2",
      "max": [0.875, 1],
      "min": [0.125, 0],
      "name": "TEXCOORD_0"
    }
  ],
  "asset": { "generator": "Aspose.3D 22.7", "version": "2.0" },
  "buffers": [
    {
      "uri": "data:application/octet-stream;base64,",
      "byteLength": 62472
    }
  ],
  "bufferViews": [
    { "buffer": 0, "byteOffset": 0, "byteLength": 3672, "target": 34963 },
    { "buffer": 0, "byteOffset": 3676, "byteLength": 1920, "byteStride": 32, "target": 34962 },
    { "buffer": 0, "byteOffset": 5600, "byteLength": 1152, "byteStride": 32, "target": 34962 },
    { "buffer": 0, "byteOffset": 6756, "byteLength": 5760, "byteStride": 32, "target": 34962 },
    { "buffer": 0, "byteOffset": 12520, "byteLength": 3840, "byteStride": 32, "target": 34962 },
    { "buffer": 0, "byteOffset": 16364, "byteLength": 10752, "byteStride": 32, "target": 34962 },
    { "buffer": 0, "byteOffset": 27120, "byteLength": 5760, "byteStride": 32, "target": 34962 },
    { "buffer": 0, "byteOffset": 32884, "byteLength": 4608, "byteStride": 32, "target": 34962 },
    { "buffer": 0, "byteOffset": 37496, "byteLength": 3840, "byteStride": 32, "target": 34962 },
    { "buffer": 0, "byteOffset": 41340, "byteLength": 10752, "byteStride": 32, "target": 34962 },
    { "buffer": 0, "byteOffset": 52096, "byteLength": 5760, "byteStride": 32, "target": 34962 },
    { "buffer": 0, "byteOffset": 57860, "byteLength": 4608, "byteStride": 32, "target": 34962 }
  ],
  "materials": [
    {
      "name": "Material",
      "pbrMetallicRoughness": {
        "baseColorFactor": [0.800000011920929, 0.800000011920929, 0.800000011920929, 1],
        "metallicFactor": 0,
        "roughnessFactor": 0.4000000059604645
      },
      "emissiveFactor": [0, 0, 0],
      "alphaMode": "OPAQUE",
      "doubleSided": true
    },
    {
      "name": "Material",
      "pbrMetallicRoughness": {
        "baseColorFactor": [0.800000011920929, 0.800000011920929, 0.800000011920929, 1],
        "metallicFactor": 0,
        "roughnessFactor": 0.4000000059604645
      },
      "emissiveFactor": [0, 0, 0],
      "alphaMode": "OPAQUE",
      "doubleSided": true
    }
  ],
  "meshes": [
    { "primitives": [{ "attributes": { "POSITION": 1, "NORMAL": 2, "TEXCOORD_0": 3 }, "indices": 0, "material": 0, "mode": 4 }] },
    { "primitives": [{ "attributes": { "POSITION": 5, "NORMAL": 6, "TEXCOORD_0": 7 }, "indices": 4, "material": 1, "mode": 4 }] },
    { "primitives": [{ "attributes": { "POSITION": 9, "NORMAL": 10, "TEXCOORD_0": 11 }, "indices": 8, "mode": 4 }] },
    { "primitives": [{ "attributes": { "POSITION": 13, "NORMAL": 14, "TEXCOORD_0": 15 }, "indices": 12, "mode": 4 }] },
    { "primitives": [{ "attributes": { "POSITION": 17, "NORMAL": 18, "TEXCOORD_0": 19 }, "indices": 16, "mode": 4 }] },
    { "primitives": [{ "attributes": { "POSITION": 21, "NORMAL": 22, "TEXCOORD_0": 23 }, "indices": 20, "mode": 4 }] },
    { "primitives": [{ "attributes": { "POSITION": 25, "NORMAL": 26, "TEXCOORD_0": 27 }, "indices": 24, "mode": 4 }] },
    { "primitives": [{ "attributes": { "POSITION": 29, "NORMAL": 30, "TEXCOORD_0": 31 }, "indices": 28, "mode": 4 }] },
    { "primitives": [{ "attributes": { "POSITION": 33, "NORMAL": 34, "TEXCOORD_0": 35 }, "indices": 32, "mode": 4 }] },
    { "primitives": [{ "attributes": { "POSITION": 37, "NORMAL": 38, "TEXCOORD_0": 39 }, "indices": 36, "mode": 4 }] },
    { "primitives": [{ "attributes": { "POSITION": 41, "NORMAL": 42, "TEXCOORD_0": 43 }, "indices": 40, "mode": 4 }] }
  ],
  "nodes": [
    { "matrix": [1, 0, 0, 0, 0, 1, 0, 0, 0, 0, 1, 0, 0.004557626321911812, 1.3837156295776367, 0, 1], "mesh": 0, "name": "wall" },
    { "matrix": [1, 0, 0, 0, 0, 1, 0, 0, 0, 0, 1, 0, 0, 1.8035073280334473, 0, 1], "mesh": 1, "name": "floor" },
    {
      "matrix": [1, 0, 0, 0, 0, 1, 0, 0, 0, 0, 1, 0, 0.5348367691040039, 0.4738059937953949, 0.5348367691040039, 1],
      "mesh": 2,
      "name": "rug"
    },
    { "mesh": 4, "name": "couch" },
    {
      "matrix": [
        0.3499999940395355, 0, 0, 0, 0, 0.05015886746559417, 0.11449492610210399, 0, 0, -0.29768679694638334, 0.1304130506270225,
        0, -0.268371045589447, 0.5343884229660034, -0.1363431215286255, 1
      ],
      "mesh": 5,
      "name": "cushon"
    },
    {
      "matrix": [
        0.3499999940395355, 0, 0, 0, 0, 0.05015886746559417, 0.11449492610210399, 0, 0, -0.29768679694638334, 0.1304130506270225,
        0, 0.5217107534408569, 0.515842080116272, -0.19442760944366455, 1
      ],
      "mesh": 5,
      "name": "cushon.002"
    },
    {
      "matrix": [
        0.03823299892634165, 0.6689466981094698, -0.4745886429614763, 0, 0.6037297805822727, 0.3009759669334359,
        0.4728711600326361, 0, 0.5564071696225612, -0.3691111482787751, -0.4754487329673313, 0, -0.5160841941833496,
        0.4738990068435669, 0.14477843046188354, 1
      ],
      "mesh": 6,
      "name": "pillow"
    },
    {
      "matrix": [
        -0.4310384141553006, -0.6135711669187955, -0.3345477143100638, 0, -0.6906311535470968, 0.30584607383082807,
        0.3288924084464184, 0, -0.12054634087407698, 0.45176870455865614, -0.6732437419210398, 0, 0.782744288444519,
        0.4738990068435669, 0.08497029542922974, 1
      ],
      "mesh": 6,
      "name": "pillow.001"
    },
    {
      "children": [3, 4, 5, 6, 7],
      "matrix": [1, 0, 0, 0, 0, 1, 0, 0, 0, 0, 1, 0, 0.23617327213287354, 0.5989172458648682, -0.9747946262359619, 1],
      "mesh": 3,
      "name": "couch.001"
    },
    { "mesh": 8, "name": "couch.002" },
    {
      "matrix": [
        0.3500000238418579, 0, 0, 0, 0, 0.05015886746559417, 0.11449492610210399, 0, 0, -0.29768679694638334, 0.1304130506270225,
        0, -0.26837101578712463, 0.5343884825706482, -0.13634316623210907, 1
      ],
      "mesh": 9,
      "name": "cushon.001"
    },
    {
      "matrix": [
        0.03823300222105102, 0.6689466813705299, -0.4745886635726973, 0, 0.6037298410576062, 0.30097599201512826,
        0.4728711688716439, 0, 0.5564071490465642, -0.3691111735251904, -0.4754487329673313, 0, -0.5160842537879944,
        0.47389906644821167, 0.14477847516536713, 1
      ],
      "mesh": 10,
      "name": "pillow.002"
    },
    {
      "children": [9, 10, 11],
      "matrix": [
        -0.004625101690209021, 0, -0.9999893073630659, 0, 0, 1, 0, 0, 0.9999893073630659, 0, -0.004625101690209021, 0,
        -0.999198317527771, 0.5896127820014954, 0.4102418124675751, 1
      ],
      "mesh": 7,
      "name": "couch.003"
    }
  ],
  "scene": 0,
  "scenes": [{ "nodes": [0, 1, 2, 8, 12] }]
}
